HIERARCHY
ROOT Hips
{
	OFFSET 0.00000 0.00000 0.00000
	CHANNELS 6 Xposition Yposition Zposition Zrotation Yrotation Xrotation 
	JOINT LHipJoint
	{
		OFFSET 0 0 0
		CHANNELS 3 Zrotation Yrotation Xrotation
		JOINT LeftHip
		{
			OFFSET 1.48831 -1.59570 0.95625
			CHANNELS 3 Zrotation Yrotation Xrotation
			JOINT LeftKnee
			{
				OFFSET 2.20856 -6.06797 0.00000
				CHANNELS 3 Zrotation Yrotation Xrotation
				JOINT LeftAnkle
				{
					OFFSET 2.62924 -7.22379 0.00000
					CHANNELS 3 Zrotation Yrotation Xrotation
					JOINT LeftToe
					{
						OFFSET 0.16802 -0.46163 2.41673
						CHANNELS 3 Zrotation Yrotation Xrotation
						End Site
						{
							OFFSET 0.00000 -0.00000 1.23760
						}
					}
				}
			}
		}
	}
	JOINT RHipJoint
	{
		OFFSET 0 0 0
		CHANNELS 3 Zrotation Yrotation Xrotation
		JOINT RightHip
		{
			OFFSET -1.56796 -1.59570 0.95625
			CHANNELS 3 Zrotation Yrotation Xrotation
			JOINT RightKnee
			{
				OFFSET -2.29239 -6.29829 0.00000
				CHANNELS 3 Zrotation Yrotation Xrotation
				JOINT RightAnkle
				{
					OFFSET -2.66963 -7.33475 0.00000
					CHANNELS 3 Zrotation Yrotation Xrotation
					JOINT RightToe
					{
						OFFSET -0.18185 -0.49964 2.34359
						CHANNELS 3 Zrotation Yrotation Xrotation
						End Site
						{
							OFFSET -0.00000 -0.00000 1.20477
						}
					}
				}
			}
		}
	}
	JOINT lowerback
	{
		OFFSET 0 0 0
		CHANNELS 3 Zrotation Yrotation Xrotation
		JOINT Chest
		{
			OFFSET 0.03505 2.15832 -0.34324
			CHANNELS 3 Zrotation Yrotation Xrotation
			JOINT Chest2
			{
				OFFSET -0.01089 2.17963 0.04689
				CHANNELS 3 Zrotation Yrotation Xrotation
				JOINT lowerneck
				{
					OFFSET 0 0 0
					CHANNELS 3 Zrotation Yrotation Xrotation
					JOINT Neck
					{
						OFFSET 0.04686 1.69404 0.22159
						CHANNELS 3 Zrotation Yrotation Xrotation
						JOINT Head
						{
							OFFSET 0.00265 1.69305 -0.01513
							CHANNELS 3 Zrotation Yrotation Xrotation
							End Site
							{
								OFFSET -0.00415 1.80215 -0.03034
							}
						}
					}
				}
				JOINT LeftCollar
				{
					OFFSET 0 0 0
					CHANNELS 3 Zrotation Yrotation Xrotation
					JOINT LeftShoulder
					{
						OFFSET 3.67184 1.11724 -0.19002
CHANNELS 3 Zrotation Xrotation Yrotation
						JOINT LeftElbow
						{
OFFSET 0 -5.177140 -0.000000
CHANNELS 3 Zrotation Xrotation Yrotation
							JOINT LeftWrist
							{
OFFSET 0 -3.436790 -0.000000
CHANNELS 3 Zrotation Xrotation Yrotation
								JOINT lhand
								{
									OFFSET 0 0 0
CHANNELS 3 Zrotation Xrotation Yrotation
									JOINT LFingers
									{
OFFSET 0 -0.573120 -0.000000
CHANNELS 3 Zrotation Xrotation Yrotation
										End Site
										{
OFFSET 0 -0.462060 -0.000000
										}
									}
								}
								JOINT LThumb
								{
OFFSET 0 0.000000 0.000000
CHANNELS 3 Zrotation Xrotation Yrotation
									End Site
									{
OFFSET 0 -0.469120 0.469120
									}
								}
							}
						}
					}
				}
				JOINT RightCollar
				{
					OFFSET 0 0 0
					CHANNELS 3 Zrotation Yrotation Xrotation
					JOINT RightShoulder
					{
						OFFSET -3.59596 0.95831 -0.26050
CHANNELS 3 Zrotation Xrotation Yrotation
						JOINT RightElbow
						{
OFFSET 0 -5.239080 -0.000000
CHANNELS 3 Zrotation Xrotation Yrotation
							JOINT RightWrist
							{
OFFSET 0 -3.464850 -0.000000
CHANNELS 3 Zrotation Xrotation Yrotation
								JOINT rhand
								{
									OFFSET 0 0 0
CHANNELS 3 Zrotation Xrotation Yrotation
									JOINT RFingers
									{
OFFSET 0 -0.608750 -0.000000
CHANNELS 3 Zrotation Xrotation Yrotation
										End Site
										{
OFFSET 0 -0.490790 -0.000000
										}
									}
								}
								JOINT RThumb
								{
OFFSET 0 0.000000 0.000000
CHANNELS 3 Zrotation Xrotation Yrotation
									End Site
									{
OFFSET 0 -0.498290 0.498290
									}
								}
							}
						}
					}
				}
			}
		}
	}
}
MOTION
Frames: 4
Frame Time: 0.008333333333333333
49.437100 15.997000 15.431200 -174.066000 -43.581100 -178.108000 0.000000 0.000000 0.000000 -14.759500 2.981900 -15.626100 2.564600 9.954400 28.829200 1.357800 -2.201800 -21.419300 0.090800 -1.943000 -5.348200 0.000000 0.000000 0.000000 27.632600 5.216700 -16.829700 -3.653500 -11.684500 34.624800 -2.254300 -2.359100 -29.301400 -0.250400 -3.219800 8.891200 5.965200 0.579600 -8.928300 0.542700 0.057900 0.998400 -2.780600 0.208300 6.081800 1.321400 -1.151500 -7.225500 2.394100 -1.971000 7.892800 0.448700 -0.849300 3.876200 -0.000000 -0.000000 0.000000 2.400800 2.226700 -23.481400 14.528500 -23.485100 3.035500 17.921300 -13.657300 -12.918100 0.000000 0.000000 0.000000 -7.125000 0.000000 0.000000 -8.556300 43.368600 -0.347200 -0.000000 -0.000000 0.000000 1.708200 -0.216600 15.706400 -13.860000 -22.534100 -2.774200 -18.050900 10.516500 8.905100 0.000000 0.000000 0.000000 7.125000 0.000000 -0.000000 7.697900 39.227000 1.102700
49.455079 15.949607 15.437983 -190.383778 -42.888173 -170.136851 0.000000 0.000000 0.000000 -28.037971 5.590433 -7.321067 1.173318 6.872825 19.340211 0.871546 -0.289488 -17.550318 0.108025 -2.119557 -5.836162 0.000000 0.000000 0.000000 14.342036 4.040365 -16.852083 -4.922301 -13.295556 40.485611 -2.702685 0.484328 -31.026492 -0.265124 -3.312378 9.149786 -6.345466 -0.027147 -5.229192 -2.644669 0.436739 1.809818 0.845730 0.023688 4.797205 1.340601 -1.172275 -7.259570 2.420622 -2.006024 7.925067 0.452027 -0.864429 3.894863 0.000000 0.000000 0.000000 2.361204 2.162670 -23.335504 14.485809 -23.424991 3.018606 17.811978 -13.454599 -12.929617 0.000000 0.000000 0.000000 -7.125000 0.000000 0.000000 -8.656712 43.368578 -0.351340 0.000000 0.000000 0.000000 1.724546 -0.234444 15.654304 -13.856035 -22.528555 -2.772684 -18.018437 10.449185 8.774376 0.000000 0.000000 0.000000 7.125000 0.000000 0.000000 7.705016 39.088736 1.130004
49.452663 15.951341 15.437021 -190.016935 -42.901178 -170.347302 0.000000 0.000000 0.000000 -27.826820 6.164015 -5.632333 0.810900 5.746576 16.050829 0.711853 0.307150 -16.058056 0.100742 -2.046717 -5.634820 0.000000 0.000000 0.000000 14.592273 4.344781 -17.363505 -5.198573 -13.603941 41.673567 -2.818701 0.889860 -31.579529 -0.272592 -3.358180 9.277566 -6.155151 -0.022932 -5.294029 -2.536439 0.435467 1.799940 0.852575 0.029690 4.823505 1.393357 -1.194443 -7.185670 2.299439 -2.026753 7.903953 0.401700 -0.879078 3.870299 0.000000 0.000000 0.000000 2.309304 2.146731 -23.326894 14.467980 -23.399774 3.011441 17.803158 -13.438663 -12.886687 0.000000 0.000000 0.000000 -7.125000 0.000000 0.000000 -8.655454 43.323504 -0.361026 0.000000 0.000000 0.000000 1.666552 -0.221927 15.773431 -13.864160 -22.540099 -2.775839 -18.024808 10.424491 8.804780 0.000000 0.000000 0.000000 7.125000 0.000000 0.000000 7.704453 39.120951 1.123839
49.450927 15.950064 15.436842 -190.211713 -42.886111 -170.284421 0.000000 0.000000 0.000000 -27.984232 6.192812 -5.508473 0.802498 5.717303 15.966269 0.708858 0.324556 -16.031198 0.096618 -2.004463 -5.518027 0.000000 0.000000 0.000000 14.435052 4.360861 -17.294260 -5.207859 -13.614126 41.713151 -2.825664 0.910591 -31.613154 -0.275080 -3.373444 9.320224 -6.374620 -0.027493 -5.225071 -2.544996 0.438364 1.818304 0.965837 0.023636 4.802775 1.403989 -1.202631 -7.151196 2.249803 -2.032742 7.894420 0.383196 -0.884116 3.859256 0.000000 0.000000 0.000000 2.240273 2.205940 -23.237056 14.543456 -23.506250 3.041544 17.736448 -13.338840 -12.932819 0.000000 0.000000 0.000000 -7.125000 0.000000 0.000000 -8.725094 43.363828 -0.355198 0.000000 0.000000 0.000000 1.620345 -0.221451 15.869925 -13.866522 -22.543616 -2.776729 -18.016600 10.387394 8.801540 0.000000 0.000000 0.000000 7.125000 0.000000 0.000000 7.710904 39.116860 1.125531
